HIERARCHY
ROOT Hips
{
	OFFSET -0.001795 -0.223333 0.028219
	CHANNELS 6 Xposition Yposition Zposition Zrotation Yrotation Xrotation 
	JOINT LeftUpLeg
	{
		OFFSET 0.069520 -0.091406 -0.006815
		CHANNELS 3 Zrotation Yrotation Xrotation
		JOINT LeftLeg
		{
			OFFSET 0.034277 -0.375199 -0.004496
			CHANNELS 3 Zrotation Yrotation Xrotation
			JOINT LeftFoot
			{
				OFFSET -0.013596 -0.397961 -0.043693
				CHANNELS 3 Zrotation Yrotation Xrotation
				JOINT LeftToe
				{
					OFFSET 0.026358 -0.055791 0.119288
					CHANNELS 3 Zrotation Yrotation Xrotation
					End Site
					{
						OFFSET 0.000000 0.000000 0.000000
					}
				}
			}
		}
	}
	JOINT RightUpLeg
	{
		OFFSET -0.067670 -0.090522 -0.004320
		CHANNELS 3 Zrotation Yrotation Xrotation
		JOINT RightLeg
		{
			OFFSET -0.038290 -0.382569 -0.008850
			CHANNELS 3 Zrotation Yrotation Xrotation
			JOINT RightFoot
			{
				OFFSET 0.015774 -0.398415 -0.042312
				CHANNELS 3 Zrotation Yrotation Xrotation
				JOINT RightToe
				{
					OFFSET -0.025372 -0.048144 0.123348
					CHANNELS 3 Zrotation Yrotation Xrotation
					End Site
					{
						OFFSET 0.000000 0.000000 0.000000
					}
				}
			}
		}
	}
	JOINT Spine
	{
		OFFSET -0.002533 0.108963 -0.026696
		CHANNELS 3 Zrotation Yrotation Xrotation
		JOINT Spine1
		{
			OFFSET 0.005487 0.135180 0.001092
			CHANNELS 3 Zrotation Yrotation Xrotation
			JOINT Spine2
			{
				OFFSET 0.001457 0.052922 0.025425
				CHANNELS 3 Zrotation Yrotation Xrotation
				JOINT Neck
				{
					OFFSET -0.002778 0.213870 -0.042857
					CHANNELS 3 Zrotation Yrotation Xrotation
					JOINT Head
					{
						OFFSET 0.005152 0.064970 0.051349
						CHANNELS 3 Zrotation Yrotation Xrotation
						End Site
						{
							OFFSET 0.000000 0.000000 0.000000
						}
					}
				}
				JOINT LeftShoulder
				{
					OFFSET 0.078845 0.121749 -0.034090
					CHANNELS 3 Zrotation Yrotation Xrotation
					JOINT LeftArm
					{
						OFFSET 0.090977 0.030469 -0.008868
						CHANNELS 3 Zrotation Yrotation Xrotation
						JOINT LeftForeArm
						{
							OFFSET 0.259612 -0.012772 -0.027456
							CHANNELS 3 Zrotation Yrotation Xrotation
							JOINT LeftHand
							{
								OFFSET 0.249234 0.008986 -0.001171
								CHANNELS 3 Zrotation Yrotation Xrotation
								End Site
								{
									OFFSET 0.000000 0.000000 0.000000
								}
							}
						}
					}
				}
				JOINT RightShoulder
				{
					OFFSET -0.081759 0.118833 -0.038615
					CHANNELS 3 Zrotation Yrotation Xrotation
					JOINT RightArm
					{
						OFFSET -0.096012 0.032551 -0.009143
						CHANNELS 3 Zrotation Yrotation Xrotation
						JOINT RightForeArm
						{
							OFFSET -0.253742 -0.013329 -0.021401
							CHANNELS 3 Zrotation Yrotation Xrotation
							JOINT RightHand
							{
								OFFSET -0.255298 0.007772 -0.005559
								CHANNELS 3 Zrotation Yrotation Xrotation
								End Site
								{
									OFFSET 0.000000 0.000000 0.000000
								}
							}
						}
					}
				}
			}
		}
	}
}
MOTION
Frames: 16
Frame Time: 0.050000
0.000000 0.946506 0.000000 -4.111319 -15.169469 9.899729 4.033689 -0.529765 -11.177739 2.549212 -0.071401 -4.617550 -3.489132 -4.215170 8.834306 0.000000 0.000000 0.000000 -1.362515 0.758928 -7.694897 3.554729 -0.242562 -3.396121 -7.134896 -19.044402 10.774199 0.000000 0.000000 0.000000 -6.239618 0.726397 12.374640 -7.170291 4.058068 5.792683 -3.536924 0.636656 2.758714 -2.702688 2.237174 -18.501560 0.000000 0.000000 0.000000 -32.250840 -25.131022 17.352549 -43.179035 -26.458017 3.610498 7.106481 -34.184205 -0.498596 0.000000 0.000000 0.000000 12.240547 29.060049 11.977871 33.304449 3.209370 -1.837680 8.130460 56.909048 5.377586 0.000000 0.000000 0.000000 
-0.000693 0.946076 -0.000745 -3.565663 -15.840185 10.078374 4.494142 -0.452452 -10.241541 1.407700 0.145914 -6.743987 -4.800480 -5.614719 11.517196 0.000000 0.000000 0.000000 -0.947660 0.825032 -8.377597 1.592456 -0.168436 -3.071961 -6.587733 -18.068750 10.139876 0.000000 0.000000 0.000000 -6.997369 0.901955 12.706913 -6.085712 3.322799 4.334201 -4.897407 0.365824 3.701211 -3.296861 2.554207 -21.516194 0.000000 0.000000 0.000000 -31.306865 -23.526946 16.178365 -43.072837 -25.365298 3.068828 5.094135 -43.167302 0.328550 0.000000 0.000000 0.000000 10.609802 28.436131 11.353932 31.582994 2.979315 -1.820893 14.515886 57.115977 8.659034 0.000000 0.000000 0.000000 
-0.000983 0.947136 -0.001180 -3.563040 -13.950894 9.831169 5.077867 -0.445739 -10.912496 1.511554 0.017827 -4.529458 -5.888161 -7.924140 9.825343 0.000000 0.000000 0.000000 -0.135537 0.788773 -8.052047 1.325729 -0.156574 -2.553366 -7.463098 -19.346737 9.395686 0.000000 0.000000 0.000000 -5.463722 0.605042 13.244620 -6.699025 3.644461 4.710322 -5.429773 0.255342 2.271323 -2.085529 1.894514 -15.692309 0.000000 0.000000 0.000000 -33.892162 -25.267018 17.672597 -40.380020 -24.470844 2.576879 3.977936 -44.630954 0.659676 0.000000 0.000000 0.000000 10.246974 27.790173 11.182505 32.739574 -1.478651 -2.903713 18.538419 58.092949 11.183263 0.000000 0.000000 0.000000 
-0.001284 0.946624 -0.001661 -3.610610 -13.864511 9.653495 5.433803 -0.410724 -10.728087 1.535813 0.069967 -5.515031 -7.710898 -10.680142 10.630230 0.000000 0.000000 0.000000 -0.282674 0.775185 -7.929122 1.934802 -0.190798 -2.911009 -8.753360 -21.431712 8.487803 0.000000 0.000000 0.000000 -5.131882 0.527180 12.827885 -6.925953 3.779969 4.857082 -6.109019 -0.489660 2.190275 -2.139929 1.873669 -15.319689 0.000000 0.000000 0.000000 -33.025950 -25.306272 17.638322 -41.711666 -24.908136 2.898365 5.900952 -46.929410 -0.077073 0.000000 0.000000 0.000000 11.117877 28.314263 11.445834 31.008514 -4.175206 -3.260869 21.408343 59.441944 13.046076 0.000000 0.000000 0.000000 
-0.001509 0.946754 -0.001984 -3.464419 -14.052147 8.769840 5.651913 -0.367442 -10.433171 0.966621 0.069963 -4.628627 -7.586665 -10.517466 10.521437 0.000000 0.000000 0.000000 -0.161358 0.735392 -7.567390 1.345888 -0.144570 -1.985683 -8.100842 -20.175938 7.725351 0.000000 0.000000 0.000000 -4.826878 0.479237 13.264539 -7.433181 4.095075 5.112922 -6.295753 -0.917232 1.900268 -2.443585 2.009711 -14.664614 0.000000 0.000000 0.000000 -31.900063 -25.701309 17.765760 -41.343883 -24.784762 2.816431 9.690864 -50.038362 -1.780743 0.000000 0.000000 0.000000 10.824060 26.906817 10.581054 30.951609 -5.436650 -3.496851 28.590930 61.783989 17.859107 0.000000 0.000000 0.000000 
-0.001564 0.946721 -0.002269 -3.257599 -14.135143 8.645977 5.769297 -0.355352 -10.374906 0.096949 0.154538 -4.791204 -7.458111 -10.216042 10.692273 0.000000 0.000000 0.000000 -0.647133 0.725288 -7.451901 1.943178 -0.164601 -1.466506 -7.791297 -19.502135 6.998594 0.000000 0.000000 0.000000 -4.506376 0.416976 13.012961 -7.350334 3.942867 4.145317 -6.652272 -1.149230 2.406963 -2.727185 2.140501 -13.393400 0.000000 0.000000 0.000000 -31.348919 -26.242386 18.138197 -40.181335 -24.209222 2.442946 12.753901 -51.207922 -3.267780 0.000000 0.000000 0.000000 10.435303 26.577834 10.313080 30.907643 -7.057752 -3.851468 34.527968 63.943671 22.317639 0.000000 0.000000 0.000000 
-0.001627 0.946475 -0.002526 -3.184144 -14.894857 7.984659 5.876570 -0.308680 -9.765811 -0.295847 0.194979 -4.918860 -7.149348 -9.569388 11.084649 0.000000 0.000000 0.000000 -0.463294 0.730268 -7.523420 1.465906 -0.107786 -0.386597 -7.045204 -18.044606 6.488825 0.000000 0.000000 0.000000 -4.458984 0.407979 12.883031 -7.297061 3.977009 4.475726 -6.772938 -1.558642 2.023034 -3.090862 2.310253 -12.825943 0.000000 0.000000 0.000000 -31.723464 -25.441672 17.923800 -38.679478 -23.761875 2.055261 15.003678 -51.174706 -4.305281 0.000000 0.000000 0.000000 9.856436 25.553637 9.596161 30.717563 -7.301610 -3.832277 41.684497 66.073283 27.865845 0.000000 0.000000 0.000000 
-0.001872 0.946447 -0.002890 -2.932583 -15.648670 7.661764 5.637894 -0.307295 -9.366696 -0.552315 0.236254 -5.380597 -6.860558 -9.145895 11.084878 0.000000 0.000000 0.000000 -0.598906 0.748058 -7.699847 1.305055 -0.077725 0.198034 -6.338126 -16.573676 5.820332 0.000000 0.000000 0.000000 -4.572275 0.426644 12.605989 -6.791602 3.725190 4.477924 -6.599803 -2.198912 1.745702 -3.332963 2.388635 -11.756322 0.000000 0.000000 0.000000 -31.622674 -25.279789 18.208030 -37.595934 -23.358696 1.723668 17.182060 -50.906420 -5.259098 0.000000 0.000000 0.000000 10.126782 25.243735 9.249815 30.190153 -7.048109 -3.612244 49.486240 68.495123 34.499211 0.000000 0.000000 0.000000 
-0.002411 0.946162 -0.003465 -2.864519 -16.924632 7.383558 6.000672 -0.234491 -8.978509 -1.086077 0.297801 -5.695113 -6.460879 -8.494957 11.296969 0.000000 0.000000 0.000000 -0.545398 0.795769 -8.162740 1.305903 -0.043042 1.127504 -6.157873 -16.083144 5.220115 0.000000 0.000000 0.000000 -4.868922 0.470315 12.032609 -6.660959 3.649082 4.159695 -6.176019 -2.298734 1.779669 -3.403722 2.367541 -11.952877 0.000000 0.000000 0.000000 -32.151896 -24.968436 18.504622 -35.807771 -22.967247 1.318309 17.937029 -49.369892 -5.439405 0.000000 0.000000 0.000000 10.769534 24.773345 8.883427 30.419695 -6.249245 -3.412104 54.811842 70.926232 39.880448 0.000000 0.000000 0.000000 
-0.002957 0.945472 -0.004198 -2.814449 -18.110677 7.129997 6.003127 -0.198863 -8.573248 -1.329084 0.319375 -5.586140 -5.945362 -7.810358 11.115655 0.000000 0.000000 0.000000 -0.336044 0.799867 -8.218439 0.938211 -0.002854 1.384654 -5.768939 -15.243159 4.924043 0.000000 0.000000 0.000000 -4.928173 0.471778 11.500147 -6.590781 3.626045 4.041777 -5.736848 -3.110432 1.997264 -4.165532 2.728358 -12.331180 0.000000 0.000000 0.000000 -32.256861 -24.832141 19.114600 -33.924463 -23.446708 1.097708 17.714041 -47.891362 -5.155359 0.000000 0.000000 0.000000 11.525099 25.275657 8.819777 31.274145 -5.367021 -3.233224 58.565059 73.198735 44.017080 0.000000 0.000000 0.000000 
-0.003472 0.945067 -0.005011 -2.805410 -19.101978 6.833808 6.098093 -0.161163 -8.427685 -1.570199 0.322078 -4.787105 -5.761382 -7.824207 10.470870 0.000000 0.000000 0.000000 -0.343526 0.854181 -8.710178 0.869043 0.036850 2.165631 -5.399760 -14.419541 4.552052 0.000000 0.000000 0.000000 -5.113481 0.499830 11.237334 -6.047036 3.313587 3.674898 -5.308155 -2.849173 2.386540 -4.315324 2.774372 -12.887115 0.000000 0.000000 0.000000 -32.127948 -25.285826 19.574631 -32.652463 -23.469810 0.940748 16.368898 -47.280694 -4.563903 0.000000 0.000000 0.000000 13.100092 25.400658 8.857167 32.246726 -4.207654 -3.054207 59.863747 75.975406 47.203809 0.000000 0.000000 0.000000 
-0.003582 0.944597 -0.005736 -2.901193 -20.012817 6.677356 6.007438 -0.143262 -8.132165 -1.321123 0.284660 -4.338008 -5.643322 -7.855872 10.053277 0.000000 0.000000 0.000000 -0.153056 0.873376 -8.878787 0.731553 0.058022 2.338299 -5.219259 -13.968700 4.284306 0.000000 0.000000 0.000000 -4.991283 0.467332 10.723191 -5.919756 3.315841 4.094121 -4.507635 -3.436560 2.382706 -5.044686 3.115352 -13.505281 0.000000 0.000000 0.000000 -31.955618 -25.232173 20.010172 -31.596320 -24.652605 1.015440 15.443572 -46.262970 -4.056784 0.000000 0.000000 0.000000 14.474409 26.411438 9.101482 33.882968 -3.040582 -2.830026 49.471537 79.022279 40.150658 0.000000 0.000000 0.000000 
-0.003686 0.944517 -0.006255 -2.663119 -20.329890 6.333477 5.400128 -0.193889 -8.004257 -1.145391 0.258273 -4.074907 -5.586988 -7.782097 10.064332 0.000000 0.000000 0.000000 -0.391786 0.884501 -8.985307 0.826280 0.073995 2.845236 -5.336837 -14.108545 4.044865 0.000000 0.000000 0.000000 -5.152413 0.470605 10.269158 -5.597518 3.175401 4.302216 -3.537176 -3.427928 2.542545 -5.573256 3.418912 -13.581730 0.000000 0.000000 0.000000 -32.556056 -25.466741 20.555085 -30.650113 -24.871425 0.901953 13.752368 -46.630549 -3.421240 0.000000 0.000000 0.000000 16.270311 26.656488 9.185919 35.073893 -2.626228 -2.771130 31.009144 80.393979 25.067973 0.000000 0.000000 0.000000 
-0.003894 0.944548 -0.006346 -2.627984 -20.748992 5.924723 5.189754 -0.188940 -7.470800 -1.098324 0.256290 -4.156062 -5.598371 -7.880344 9.941613 0.000000 0.000000 0.000000 -0.236213 0.880108 -8.940807 0.706566 0.093202 3.015014 -5.158574 -13.655877 3.809973 0.000000 0.000000 0.000000 -5.260633 0.456153 9.655386 -5.266534 3.101083 5.067359 -2.895068 -3.251431 2.346255 -5.766078 3.534113 -13.565527 0.000000 0.000000 0.000000 -32.684410 -25.359276 20.560692 -30.316589 -25.276373 0.941572 11.766397 -46.782615 -2.593138 0.000000 0.000000 0.000000 17.761742 27.290478 9.543943 36.457105 -2.092455 -2.702674 8.108943 79.803679 5.698623 0.000000 0.000000 0.000000 
-0.004142 0.944279 -0.006036 -2.583097 -21.142221 5.919617 4.774987 -0.229350 -7.674195 -0.835868 0.217784 -3.858732 -5.719778 -8.316677 9.388762 0.000000 0.000000 0.000000 -0.347958 0.861362 -8.791913 0.856758 0.072490 2.812540 -5.147800 -13.535739 3.604052 0.000000 0.000000 0.000000 -5.087229 0.412149 9.052225 -5.481123 3.241317 5.169369 -2.105107 -2.956648 2.568268 -6.074340 3.726519 -13.505902 0.000000 0.000000 0.000000 -32.245472 -25.367958 20.452125 -30.769004 -24.748386 0.864217 9.739245 -49.148148 -1.782487 0.000000 0.000000 0.000000 18.931521 27.358563 9.596210 37.336344 -1.581833 -2.599359 -5.123044 76.854193 -4.953623 0.000000 0.000000 0.000000 
-0.004184 0.943869 -0.005673 -2.397617 -21.342679 5.600442 4.540238 -0.239518 -7.428395 -0.836102 0.210460 -3.601429 -5.819819 -8.788142 8.600886 0.000000 0.000000 0.000000 -0.375626 0.801009 -8.267632 0.691627 0.082588 2.736280 -5.223398 -13.485243 3.193747 0.000000 0.000000 0.000000 -5.162362 0.404222 8.662305 -5.393040 3.234607 5.449463 -1.858760 -2.308185 2.598185 -6.026641 3.742019 -13.455834 0.000000 0.000000 0.000000 -31.991118 -25.456048 20.177708 -30.958753 -24.272113 0.833336 6.940087 -50.379204 -0.541733 0.000000 0.000000 0.000000 19.715345 27.928398 10.135850 36.919187 -0.824667 -2.368566 -16.595064 73.196792 -12.799170 0.000000 0.000000 0.000000 
